# xmcd CD database file
#
# Track frame offsets:
#	150
#	15053
#	36753
#	51993
#	66078
#	79671
#	99594
#	113125
#	130385
#	140801
#	154025
#	163409
#	176797
#
# Disc length: 2529 seconds
#
# Revision: 1
# Processed by: cddbd v1.5.2PL0 Copyright (c) Steve Scherf et al.
# Submitted via: Feurio! 1.68 - http://www.feurio.com
#
DISCID=af09df0d
DTITLE=Various Artist - Country Stars 
DYEAR=1900
DGENRE=Country
TTITLE0=Truck Stop - Easy rider
TTITLE1=Tom Astor - Kameraden der Strasse
TTITLE2=Volker Lechterbrink - Lucille
TTITLE3=Jonny Hill - Deine Liebe war so zärtlich
TTITLE4=Truck Stop - Hilly Billy Country Lilly
TTITLE5=Torfrock - Beinhart
TTITLE6=Johnny Cash - As long as i live
TTITLE7=Gunter Gabriel - Stur in der Spur
TTITLE8=Tom Astor - Highway Helden
TTITLE9=Truck Stop - Arizona-Arizona
TTITLE10=Daliah Lavi - Schalt dein Radio ein
TTITLE11=Volker Lechtenbrink - Der winzige Cowboy
TTITLE12=Truck Stop - Die Frau mit dem Gurt
EXTD=CD 3
EXTT0=
EXTT1=
EXTT2=
EXTT3=
EXTT4=
EXTT5=
EXTT6=
EXTT7=
EXTT8=
EXTT9=
EXTT10=
EXTT11=
EXTT12=
PLAYORDER=
